<?xml version="1.0" encoding="UTF-8" standalone="no"?>
<!-- Created with Inkscape (http://www.inkscape.org/) -->

<svg
   xmlns:dc="http://purl.org/dc/elements/1.1/"
   xmlns:cc="http://creativecommons.org/ns#"
   xmlns:rdf="http://www.w3.org/1999/02/22-rdf-syntax-ns#"
   xmlns:svg="http://www.w3.org/2000/svg"
   xmlns="http://www.w3.org/2000/svg"
   xmlns:sodipodi="http://sodipodi.sourceforge.net/DTD/sodipodi-0.dtd"
   xmlns:inkscape="http://www.inkscape.org/namespaces/inkscape"
   width="181.91801"
   height="109.5067"
   id="svg2"
   version="1.1"
   inkscape:version="0.48.5 r10040"
   sodipodi:docname="Nouveau document 1">
  <defs
     id="defs4" />
  <sodipodi:namedview
     id="base"
     pagecolor="#ffffff"
     bordercolor="#666666"
     borderopacity="1.0"
     inkscape:pageopacity="0.0"
     inkscape:pageshadow="2"
     inkscape:zoom="2.43"
     inkscape:cx="27.613908"
     inkscape:cy="41.461165"
     inkscape:document-units="px"
     inkscape:current-layer="layer1"
     showgrid="false"
     fit-margin-top="0"
     fit-margin-left="0"
     fit-margin-right="0"
     fit-margin-bottom="0"
     inkscape:window-width="1535"
     inkscape:window-height="876"
     inkscape:window-x="65"
     inkscape:window-y="24"
     inkscape:window-maximized="1" />
  <metadata
     id="metadata7">
    <rdf:RDF>
      <cc:Work
         rdf:about="">
        <dc:format>image/svg+xml</dc:format>
        <dc:type
           rdf:resource="http://purl.org/dc/dcmitype/StillImage" />
        <dc:title></dc:title>
      </cc:Work>
    </rdf:RDF>
  </metadata>
  <g
     inkscape:label="Calque 1"
     inkscape:groupmode="layer"
     id="layer1"
     transform="translate(-159.28204,-102.88807)">
    <g
       transform="matrix(0.85737497,0,0,0.85737497,159.16519,103.06466)"
       id="ID0.8323829737491906"
       style="opacity:0.20788532">
      <path
         transform="matrix(0.77378094,0,0,0.77378094,-4,0.5)"
         d="m 75.198,146.331 c 0,-2.057 0.577,-5.012 3.769,-5.679 4.605,-0.966 9.874,3.697 11.307,5.069 -0.106,0.546 1.686,11.562 1.686,12.517 0,3.229 -0.863,3.357 -1.198,3.41 -3.153,0.459 -11.556,-8.377 -15.413,-13.518 -0.053,-0.279 -0.151,-0.9 -0.151,-1.799 l 0,0 0,0 z"
         id="R_Leg"
         inkscape:connector-curvature="0"
         style="fill:#ffc93e;stroke:#603813;stroke-width:2" />
      <path
         transform="matrix(0.77378094,0,0,0.77378094,-4,0.5)"
         d="m 62.43,161.767 c -2.286,-2.48 -2.612,-9.201 -2.612,-12.06 0,-1.213 0.062,-2.02 0.065,-2.045 l 0.004,-0.062 c 0,0 -0.007,-0.259 -0.007,-0.354 0,-5.384 4.957,-7.253 5.797,-7.534 2.87,0.035 7.831,1.393 9.015,3.442 0.12,0.206 0.232,0.466 0.232,0.799 0,0.292 -0.087,0.646 -0.335,1.073 -0.115,0.196 -2.153,5.012 -3.877,8.705 l -1.232,3.415 c -0.922,2.984 -2.373,5.97 -3.952,5.97 -1.248,0.002 -2.261,-0.44 -3.098,-1.349 l 0,0 0,0 z"
         id="Center_Leg"
         inkscape:connector-curvature="0"
         style="fill:#ffc93e;stroke:#603813;stroke-width:2" />
      <path
         transform="matrix(0.77378094,0,0,0.77378094,-4,0.5)"
         d="m 127.081,122.735 -2.229,-3.933 c -2.441,-4.251 -5.261,-8.143 -7.748,-11.569 -3.197,-4.413 -5.979,-8.979 -6.9,-12.205 -0.332,-1.162 -0.172,-2.271 0.306,-2.884 0.046,-0.165 0.528,-0.428 0.868,-0.498 4.096,-0.885 21.051,8.849 25.281,14.052 6.197,7.62 8.675,18.309 7.293,23.693 -0.567,2.2 -1.835,3.759 -3.671,4.501 -4.693,1.896 -7.78,-1.526 -13.2,-11.157 l 0,0 0,0 z"
         id="R_Arm"
         inkscape:connector-curvature="0"
         style="fill:#ffc93e;stroke:#603813;stroke-width:2" />
      <path
         transform="matrix(0.77378094,0,0,0.77378094,-4,0.5)"
         d="M 60.339,47.617 C 66.358,44.346 60.146,32.03 54.136,20.116 50.851,13.602 44.993,2.6 46.897,1.569 50.58,-0.427 68.175,20.337 75.308,28.706 l 7.271,8.282 c 0,0 5.198,6.377 9.176,10.583 0.07,0.073 3.831,-0.511 6.429,-2.67 2.118,-1.767 1.838,-3.744 2.512,-7.902 0.619,-3.82 1.291,-10.733 3.341,-10.768 3.088,-0.047 5.118,12.681 5.909,17.396 l 0.437,2.522 c 1.037,5.608 6.447,22.469 6.679,23.184 0.074,0.174 0.196,0.4 0.196,0.4 l 0.045,0.091 0.062,0.076 c 8.354,10.361 14.567,22.924 14.567,34.694 0,24.924 -21.848,42.469 -51.092,42.469 -5.424,0 -10.729,-0.76 -15.768,-2.254 l -0.271,-0.078 c 0,0 -7.91,-0.665 -18.029,12.636 -2.03,2.67 -1.849,5.159 -4.71,4.393 -0.954,-0.255 -1.655,-0.956 -2.227,-2.229 -1.368,-3.036 -0.358,-10.229 1.314,-14.825 l 0.263,-0.722 -0.604,-0.478 C 40.66,143.388 24.248,131.429 22.59,114.292 21.145,99.354 28.691,90.849 31.822,86.175 l 1.799,-2.996 C 35.892,77.654 31.618,69.97 27.846,63.19 25.594,59.142 21.959,53.235 22.78,51.847 c 0.911,-1.538 4.167,0.099 7.455,1.667 2.666,1.274 5.231,3.074 7.012,1.887 1.852,-1.233 0.637,-4.33 -1.046,-8.617 -1.583,-4.026 -4.58,-10.386 -3.429,-13.011 0.317,-0.722 0.873,-1.229 1.7,-1.55 3.058,-1.184 7.43,3.967 10.969,7.996 4.317,4.919 9.213,10.493 14.898,7.398 l 0,0 0,0 z"
         id="Body"
         inkscape:connector-curvature="0"
         style="fill:#ffc93e;stroke:#603813;stroke-width:2;stroke-linecap:round;stroke-linejoin:round" />
      <g
         id="L_Eye">
        <path
           transform="matrix(0.77378094,0,0,0.77378094,-4,0.5)"
           d="m 65.386,106.419 c 0,4.495 3.647,8.14 8.145,8.14 4.498,0 8.143,-3.645 8.143,-8.14 0,-4.498 -3.646,-8.148 -8.143,-8.148 -4.499,0.002 -8.145,3.65 -8.145,8.148 l 0,0 0,0 z"
           id="White_1_"
           inkscape:connector-curvature="0"
           style="fill:#ffffff" />
        <path
           transform="matrix(0.77378094,0,0,0.77378094,-4,0.5)"
           d="m 74.627,100.467 c 1.581,0 3.014,0.642 4.051,1.68 1.038,1.037 1.68,2.47 1.68,4.051 0,1.581 -0.642,3.014 -1.68,4.051 -1.037,1.038 -2.47,1.68 -4.051,1.68 -1.581,0 -3.014,-0.642 -4.051,-1.68 -1.038,-1.037 -1.68,-2.47 -1.68,-4.051 0,-1.581 0.642,-3.014 1.68,-4.051 1.037,-1.038 2.47,-1.68 4.051,-1.68 l 0,0 z"
           id="Pupil_1_"
           inkscape:connector-curvature="0"
           style="fill:#603813" />
      </g>
      <g
         id="R_Eye">
        <path
           transform="matrix(0.77378094,0,0,0.77378094,-4,0.5)"
           d="m 104.618,106.419 c 0,4.495 3.646,8.14 8.146,8.14 4.495,0 8.143,-3.645 8.143,-8.14 0,-4.498 -3.646,-8.148 -8.143,-8.148 -4.5,0.002 -8.146,3.65 -8.146,8.148 l 0,0 0,0 z"
           id="White"
           inkscape:connector-curvature="0"
           style="fill:#ffffff" />
        <path
           transform="matrix(0.77378094,0,0,0.77378094,-4,0.5)"
           d="m 108.127,106.198 c 0,3.165 2.564,5.729 5.73,5.729 3.164,0 5.731,-2.562 5.731,-5.729 0,-3.163 -2.567,-5.731 -5.731,-5.731 -3.166,0 -5.73,2.567 -5.73,5.731 l 0,0 0,0 z"
           id="Pupil"
           inkscape:connector-curvature="0"
           style="fill:#603813" />
      </g>
      <path
         transform="matrix(0.77378094,0,0,0.77378094,-4,0.5)"
         d="m 9.154,137.858 c -1.669,-1.066 -2.631,-2.826 -2.786,-5.096 -0.377,-5.551 4.016,-15.604 11.499,-21.962 5.11,-4.342 23.56,-10.81 27.424,-9.193 0.319,0.134 0.747,0.478 0.76,0.652 0.361,0.688 0.313,1.805 -0.226,2.887 -1.494,3.004 -5.064,6.987 -9.016,10.736 -3.072,2.924 -6.553,6.226 -9.728,9.963 l -2.912,3.45 c -7.087,8.482 -10.752,11.288 -15.015,8.563 l 0,0 0,0 z"
         id="L_Arm"
         inkscape:connector-curvature="0"
         style="fill:#ffc93e;stroke:#603813;stroke-width:2" />
      <path
         transform="matrix(0.77378094,0,0,0.77378094,-4,0.5)"
         d="m 100.718,132.05 c 0,0 -7.413,0.006 -12.604,-4.443"
         id="Mouth"
         inkscape:connector-curvature="0"
         style="fill:none;stroke:#603813;stroke-width:2;stroke-linecap:round;stroke-linejoin:round" />
    </g>
    <g
       id="g3019"
       transform="matrix(0.85737497,0,0,0.85737497,193.83891,103.08818)"
       style="opacity:0.68100359">
      <path
         style="fill:#ffc93e;stroke:#603813;stroke-width:2"
         inkscape:connector-curvature="0"
         id="path3021"
         d="m 75.198,146.331 c 0,-2.057 0.577,-5.012 3.769,-5.679 4.605,-0.966 9.874,3.697 11.307,5.069 -0.106,0.546 1.686,11.562 1.686,12.517 0,3.229 -0.863,3.357 -1.198,3.41 -3.153,0.459 -11.556,-8.377 -15.413,-13.518 -0.053,-0.279 -0.151,-0.9 -0.151,-1.799 l 0,0 0,0 z"
         transform="matrix(0.77378094,0,0,0.77378094,-4,0.5)" />
      <path
         style="fill:#ffc93e;stroke:#603813;stroke-width:2"
         inkscape:connector-curvature="0"
         id="path3023"
         d="m 62.43,161.767 c -2.286,-2.48 -2.612,-9.201 -2.612,-12.06 0,-1.213 0.062,-2.02 0.065,-2.045 l 0.004,-0.062 c 0,0 -0.007,-0.259 -0.007,-0.354 0,-5.384 4.957,-7.253 5.797,-7.534 2.87,0.035 7.831,1.393 9.015,3.442 0.12,0.206 0.232,0.466 0.232,0.799 0,0.292 -0.087,0.646 -0.335,1.073 -0.115,0.196 -2.153,5.012 -3.877,8.705 l -1.232,3.415 c -0.922,2.984 -2.373,5.97 -3.952,5.97 -1.248,0.002 -2.261,-0.44 -3.098,-1.349 l 0,0 0,0 z"
         transform="matrix(0.77378094,0,0,0.77378094,-4,0.5)" />
      <path
         style="fill:#ffc93e;stroke:#603813;stroke-width:2"
         inkscape:connector-curvature="0"
         id="path3025"
         d="m 127.081,122.735 -2.229,-3.933 c -2.441,-4.251 -5.261,-8.143 -7.748,-11.569 -3.197,-4.413 -5.979,-8.979 -6.9,-12.205 -0.332,-1.162 -0.172,-2.271 0.306,-2.884 0.046,-0.165 0.528,-0.428 0.868,-0.498 4.096,-0.885 21.051,8.849 25.281,14.052 6.197,7.62 8.675,18.309 7.293,23.693 -0.567,2.2 -1.835,3.759 -3.671,4.501 -4.693,1.896 -7.78,-1.526 -13.2,-11.157 l 0,0 0,0 z"
         transform="matrix(0.77378094,0,0,0.77378094,-4,0.5)" />
      <path
         style="fill:#ffc93e;stroke:#603813;stroke-width:2;stroke-linecap:round;stroke-linejoin:round"
         inkscape:connector-curvature="0"
         id="path3027"
         d="M 60.339,47.617 C 66.358,44.346 60.146,32.03 54.136,20.116 50.851,13.602 44.993,2.6 46.897,1.569 50.58,-0.427 68.175,20.337 75.308,28.706 l 7.271,8.282 c 0,0 5.198,6.377 9.176,10.583 0.07,0.073 3.831,-0.511 6.429,-2.67 2.118,-1.767 1.838,-3.744 2.512,-7.902 0.619,-3.82 1.291,-10.733 3.341,-10.768 3.088,-0.047 5.118,12.681 5.909,17.396 l 0.437,2.522 c 1.037,5.608 6.447,22.469 6.679,23.184 0.074,0.174 0.196,0.4 0.196,0.4 l 0.045,0.091 0.062,0.076 c 8.354,10.361 14.567,22.924 14.567,34.694 0,24.924 -21.848,42.469 -51.092,42.469 -5.424,0 -10.729,-0.76 -15.768,-2.254 l -0.271,-0.078 c 0,0 -7.91,-0.665 -18.029,12.636 -2.03,2.67 -1.849,5.159 -4.71,4.393 -0.954,-0.255 -1.655,-0.956 -2.227,-2.229 -1.368,-3.036 -0.358,-10.229 1.314,-14.825 l 0.263,-0.722 -0.604,-0.478 C 40.66,143.388 24.248,131.429 22.59,114.292 21.145,99.354 28.691,90.849 31.822,86.175 l 1.799,-2.996 C 35.892,77.654 31.618,69.97 27.846,63.19 25.594,59.142 21.959,53.235 22.78,51.847 c 0.911,-1.538 4.167,0.099 7.455,1.667 2.666,1.274 5.231,3.074 7.012,1.887 1.852,-1.233 0.637,-4.33 -1.046,-8.617 -1.583,-4.026 -4.58,-10.386 -3.429,-13.011 0.317,-0.722 0.873,-1.229 1.7,-1.55 3.058,-1.184 7.43,3.967 10.969,7.996 4.317,4.919 9.213,10.493 14.898,7.398 l 0,0 0,0 z"
         transform="matrix(0.77378094,0,0,0.77378094,-4,0.5)" />
      <g
         id="g3029">
        <path
           style="fill:#ffffff"
           inkscape:connector-curvature="0"
           id="path3031"
           d="m 65.386,106.419 c 0,4.495 3.647,8.14 8.145,8.14 4.498,0 8.143,-3.645 8.143,-8.14 0,-4.498 -3.646,-8.148 -8.143,-8.148 -4.499,0.002 -8.145,3.65 -8.145,8.148 l 0,0 0,0 z"
           transform="matrix(0.77378094,0,0,0.77378094,-4,0.5)" />
        <path
           style="fill:#603813"
           inkscape:connector-curvature="0"
           id="path3033"
           d="m 74.627,100.467 c 1.581,0 3.014,0.642 4.051,1.68 1.038,1.037 1.68,2.47 1.68,4.051 0,1.581 -0.642,3.014 -1.68,4.051 -1.037,1.038 -2.47,1.68 -4.051,1.68 -1.581,0 -3.014,-0.642 -4.051,-1.68 -1.038,-1.037 -1.68,-2.47 -1.68,-4.051 0,-1.581 0.642,-3.014 1.68,-4.051 1.037,-1.038 2.47,-1.68 4.051,-1.68 l 0,0 z"
           transform="matrix(0.77378094,0,0,0.77378094,-4,0.5)" />
      </g>
      <g
         id="g3035">
        <path
           style="fill:#ffffff"
           inkscape:connector-curvature="0"
           id="path3037"
           d="m 104.618,106.419 c 0,4.495 3.646,8.14 8.146,8.14 4.495,0 8.143,-3.645 8.143,-8.14 0,-4.498 -3.646,-8.148 -8.143,-8.148 -4.5,0.002 -8.146,3.65 -8.146,8.148 l 0,0 0,0 z"
           transform="matrix(0.77378094,0,0,0.77378094,-4,0.5)" />
        <path
           style="fill:#603813"
           inkscape:connector-curvature="0"
           id="path3039"
           d="m 108.127,106.198 c 0,3.165 2.564,5.729 5.73,5.729 3.164,0 5.731,-2.562 5.731,-5.729 0,-3.163 -2.567,-5.731 -5.731,-5.731 -3.166,0 -5.73,2.567 -5.73,5.731 l 0,0 0,0 z"
           transform="matrix(0.77378094,0,0,0.77378094,-4,0.5)" />
      </g>
      <path
         style="fill:#ffc93e;stroke:#603813;stroke-width:2"
         inkscape:connector-curvature="0"
         id="path3041"
         d="m 9.154,137.858 c -1.669,-1.066 -2.631,-2.826 -2.786,-5.096 -0.377,-5.551 4.016,-15.604 11.499,-21.962 5.11,-4.342 23.56,-10.81 27.424,-9.193 0.319,0.134 0.747,0.478 0.76,0.652 0.361,0.688 0.313,1.805 -0.226,2.887 -1.494,3.004 -5.064,6.987 -9.016,10.736 -3.072,2.924 -6.553,6.226 -9.728,9.963 l -2.912,3.45 c -7.087,8.482 -10.752,11.288 -15.015,8.563 l 0,0 0,0 z"
         transform="matrix(0.77378094,0,0,0.77378094,-4,0.5)" />
      <path
         style="fill:none;stroke:#603813;stroke-width:2;stroke-linecap:round;stroke-linejoin:round"
         inkscape:connector-curvature="0"
         id="path3043"
         d="m 100.718,132.05 c 0,0 -7.413,0.006 -12.604,-4.443"
         transform="matrix(0.77378094,0,0,0.77378094,-4,0.5)" />
    </g>
    <g
       transform="matrix(0.85737497,0,0,0.85737497,248.2187,102.17107)"
       id="g3045">
      <path
         transform="matrix(0.77378094,0,0,0.77378094,-4,0.5)"
         d="m 75.198,146.331 c 0,-2.057 0.577,-5.012 3.769,-5.679 4.605,-0.966 9.874,3.697 11.307,5.069 -0.106,0.546 1.686,11.562 1.686,12.517 0,3.229 -0.863,3.357 -1.198,3.41 -3.153,0.459 -11.556,-8.377 -15.413,-13.518 -0.053,-0.279 -0.151,-0.9 -0.151,-1.799 l 0,0 0,0 z"
         id="path3047"
         inkscape:connector-curvature="0"
         style="fill:#ffc93e;stroke:#603813;stroke-width:2" />
      <path
         transform="matrix(0.77378094,0,0,0.77378094,-4,0.5)"
         d="m 62.43,161.767 c -2.286,-2.48 -2.612,-9.201 -2.612,-12.06 0,-1.213 0.062,-2.02 0.065,-2.045 l 0.004,-0.062 c 0,0 -0.007,-0.259 -0.007,-0.354 0,-5.384 4.957,-7.253 5.797,-7.534 2.87,0.035 7.831,1.393 9.015,3.442 0.12,0.206 0.232,0.466 0.232,0.799 0,0.292 -0.087,0.646 -0.335,1.073 -0.115,0.196 -2.153,5.012 -3.877,8.705 l -1.232,3.415 c -0.922,2.984 -2.373,5.97 -3.952,5.97 -1.248,0.002 -2.261,-0.44 -3.098,-1.349 l 0,0 0,0 z"
         id="path3049"
         inkscape:connector-curvature="0"
         style="fill:#ffc93e;stroke:#603813;stroke-width:2" />
      <path
         transform="matrix(0.77378094,0,0,0.77378094,-4,0.5)"
         d="m 127.081,122.735 -2.229,-3.933 c -2.441,-4.251 -5.261,-8.143 -7.748,-11.569 -3.197,-4.413 -5.979,-8.979 -6.9,-12.205 -0.332,-1.162 -0.172,-2.271 0.306,-2.884 0.046,-0.165 0.528,-0.428 0.868,-0.498 4.096,-0.885 21.051,8.849 25.281,14.052 6.197,7.62 8.675,18.309 7.293,23.693 -0.567,2.2 -1.835,3.759 -3.671,4.501 -4.693,1.896 -7.78,-1.526 -13.2,-11.157 l 0,0 0,0 z"
         id="path3051"
         inkscape:connector-curvature="0"
         style="fill:#ffc93e;stroke:#603813;stroke-width:2" />
      <path
         transform="matrix(0.77378094,0,0,0.77378094,-4,0.5)"
         d="M 60.339,47.617 C 66.358,44.346 60.146,32.03 54.136,20.116 50.851,13.602 44.993,2.6 46.897,1.569 50.58,-0.427 68.175,20.337 75.308,28.706 l 7.271,8.282 c 0,0 5.198,6.377 9.176,10.583 0.07,0.073 3.831,-0.511 6.429,-2.67 2.118,-1.767 1.838,-3.744 2.512,-7.902 0.619,-3.82 1.291,-10.733 3.341,-10.768 3.088,-0.047 5.118,12.681 5.909,17.396 l 0.437,2.522 c 1.037,5.608 6.447,22.469 6.679,23.184 0.074,0.174 0.196,0.4 0.196,0.4 l 0.045,0.091 0.062,0.076 c 8.354,10.361 14.567,22.924 14.567,34.694 0,24.924 -21.848,42.469 -51.092,42.469 -5.424,0 -10.729,-0.76 -15.768,-2.254 l -0.271,-0.078 c 0,0 -7.91,-0.665 -18.029,12.636 -2.03,2.67 -1.849,5.159 -4.71,4.393 -0.954,-0.255 -1.655,-0.956 -2.227,-2.229 -1.368,-3.036 -0.358,-10.229 1.314,-14.825 l 0.263,-0.722 -0.604,-0.478 C 40.66,143.388 24.248,131.429 22.59,114.292 21.145,99.354 28.691,90.849 31.822,86.175 l 1.799,-2.996 C 35.892,77.654 31.618,69.97 27.846,63.19 25.594,59.142 21.959,53.235 22.78,51.847 c 0.911,-1.538 4.167,0.099 7.455,1.667 2.666,1.274 5.231,3.074 7.012,1.887 1.852,-1.233 0.637,-4.33 -1.046,-8.617 -1.583,-4.026 -4.58,-10.386 -3.429,-13.011 0.317,-0.722 0.873,-1.229 1.7,-1.55 3.058,-1.184 7.43,3.967 10.969,7.996 4.317,4.919 9.213,10.493 14.898,7.398 l 0,0 0,0 z"
         id="path3053"
         inkscape:connector-curvature="0"
         style="fill:#ffc93e;stroke:#603813;stroke-width:2;stroke-linecap:round;stroke-linejoin:round" />
      <g
         id="g3055">
        <path
           transform="matrix(0.77378094,0,0,0.77378094,-4,0.5)"
           d="m 65.386,106.419 c 0,4.495 3.647,8.14 8.145,8.14 4.498,0 8.143,-3.645 8.143,-8.14 0,-4.498 -3.646,-8.148 -8.143,-8.148 -4.499,0.002 -8.145,3.65 -8.145,8.148 l 0,0 0,0 z"
           id="path3057"
           inkscape:connector-curvature="0"
           style="fill:#ffffff" />
        <path
           transform="matrix(0.77378094,0,0,0.77378094,-4,0.5)"
           d="m 74.627,100.467 c 1.581,0 3.014,0.642 4.051,1.68 1.038,1.037 1.68,2.47 1.68,4.051 0,1.581 -0.642,3.014 -1.68,4.051 -1.037,1.038 -2.47,1.68 -4.051,1.68 -1.581,0 -3.014,-0.642 -4.051,-1.68 -1.038,-1.037 -1.68,-2.47 -1.68,-4.051 0,-1.581 0.642,-3.014 1.68,-4.051 1.037,-1.038 2.47,-1.68 4.051,-1.68 l 0,0 z"
           id="path3059"
           inkscape:connector-curvature="0"
           style="fill:#603813" />
      </g>
      <g
         id="g3061">
        <path
           transform="matrix(0.77378094,0,0,0.77378094,-4,0.5)"
           d="m 104.618,106.419 c 0,4.495 3.646,8.14 8.146,8.14 4.495,0 8.143,-3.645 8.143,-8.14 0,-4.498 -3.646,-8.148 -8.143,-8.148 -4.5,0.002 -8.146,3.65 -8.146,8.148 l 0,0 0,0 z"
           id="path3063"
           inkscape:connector-curvature="0"
           style="fill:#ffffff" />
        <path
           transform="matrix(0.77378094,0,0,0.77378094,-4,0.5)"
           d="m 108.127,106.198 c 0,3.165 2.564,5.729 5.73,5.729 3.164,0 5.731,-2.562 5.731,-5.729 0,-3.163 -2.567,-5.731 -5.731,-5.731 -3.166,0 -5.73,2.567 -5.73,5.731 l 0,0 0,0 z"
           id="path3065"
           inkscape:connector-curvature="0"
           style="fill:#603813" />
      </g>
      <path
         transform="matrix(0.77378094,0,0,0.77378094,-4,0.5)"
         d="m 9.154,137.858 c -1.669,-1.066 -2.631,-2.826 -2.786,-5.096 -0.377,-5.551 4.016,-15.604 11.499,-21.962 5.11,-4.342 23.56,-10.81 27.424,-9.193 0.319,0.134 0.747,0.478 0.76,0.652 0.361,0.688 0.313,1.805 -0.226,2.887 -1.494,3.004 -5.064,6.987 -9.016,10.736 -3.072,2.924 -6.553,6.226 -9.728,9.963 l -2.912,3.45 c -7.087,8.482 -10.752,11.288 -15.015,8.563 l 0,0 0,0 z"
         id="path3067"
         inkscape:connector-curvature="0"
         style="fill:#ffc93e;stroke:#603813;stroke-width:2" />
      <path
         transform="matrix(0.77378094,0,0,0.77378094,-4,0.5)"
         d="m 100.718,132.05 c 0,0 -7.413,0.006 -12.604,-4.443"
         id="path3069"
         inkscape:connector-curvature="0"
         style="fill:none;stroke:#603813;stroke-width:2;stroke-linecap:round;stroke-linejoin:round" />
    </g>
  </g>
</svg>
